<svg id="eeX9YLjyBxd1" xmlns="http://www.w3.org/2000/svg" xmlns:xlink="http://www.w3.org/1999/xlink" viewBox="0 0 1920 1080" shape-rendering="geometricPrecision" text-rendering="geometricPrecision" project-id="e53a0d106cb54eb8af664630a30d3d26" export-id="4297708ebd4b49c6aafd4ad9929e1e22" cached="false"><path d="M897.977528,540v-92.359551q5.393258-56.629214-88.988764-56.629214t-695.730337,0" transform="matrix(.645868 0 0 1 319.106556 0.000001)" fill="none" stroke="#3f5787" stroke-width="3.84"/><path d="M960,540v-92.35955q-2.69663-56.629214,67.41573-56.629214t776.629214,0" transform="matrix(.657761 0 0 1 323.96507 0)" fill="none" stroke="#3f5787" stroke-width="3.84"/><path d="M898.265816,698.426966v102.47191q7.801616,75.505619-89.277044,80.898877t-695.730337,0" transform="matrix(.594931 0 0 1 363.985758-91)" fill="none" stroke="#3f5787" stroke-width="3.84"/><path d="M960,695.730337l.000001,118.651685q-10.786519,67.41573,99.775279,67.41573t744.269664,0" transform="matrix(.668096 0 0 1 316.54107-95.999997)" fill="none" stroke="#3f5787" stroke-width="3.84"/></svg>
